<?xml version="1.0" standalone="no"?>
<!DOCTYPE svg PUBLIC "-//W3C//DTD SVG 20010904//EN"
 "http://www.w3.org/TR/2001/REC-SVG-20010904/DTD/svg10.dtd">
<svg version="1.0" xmlns="http://www.w3.org/2000/svg"
 width="1280.000000pt" height="720.000000pt" viewBox="0 0 1280.000000 720.000000"
 preserveAspectRatio="xMidYMid meet">
<metadata>
Created by potrace 1.15, written by Peter Selinger 2001-2017
</metadata>
<g transform="translate(0.000000,720.000000) scale(0.100000,-0.100000)"
fill="#f44336" stroke="none">
<path d="M5905 5539 c-669 -45 -1171 -128 -1705 -282 -591 -172 -1075 -414
-1387 -696 -62 -55 -120 -101 -130 -101 -10 0 -162 -23 -338 -51 -558 -88
-928 -173 -1295 -298 -392 -133 -628 -270 -696 -403 -21 -42 -24 -54 -14 -82
14 -43 67 -92 170 -158 47 -30 108 -80 136 -111 96 -108 224 -178 468 -257
108 -35 429 -124 517 -144 15 -3 37 -22 52 -45 35 -53 119 -115 209 -155 50
-22 91 -50 131 -88 37 -36 91 -73 145 -101 173 -88 324 -125 547 -134 232 -9
416 18 602 88 l81 31 154 -60 c438 -173 825 -278 1233 -336 253 -35 321 -42
770 -73 355 -24 1335 -24 1690 0 455 31 518 37 769 73 390 55 757 153 1170
311 l168 65 107 -36 c152 -50 257 -66 441 -66 263 0 465 45 669 150 53 27 121
71 151 98 30 27 93 67 140 89 85 40 198 118 223 153 9 12 48 27 113 43 326 81
597 166 734 230 91 42 170 100 230 169 24 28 87 79 140 113 106 70 142 104
158 153 10 29 8 40 -13 81 -104 205 -645 433 -1420 597 -193 41 -626 116 -838
145 -62 9 -94 18 -111 33 -13 12 -68 60 -122 107 -468 408 -1326 730 -2327
873 -234 34 -444 55 -747 76 -168 11 -799 11 -975 -1z"/>
</g>
</svg>
